<?xml version="1.0" encoding="UTF-8" standalone="no"?>
<!DOCTYPE svg PUBLIC "-//W3C//DTD SVG 1.1//EN"
 "http://www.w3.org/Graphics/SVG/1.1/DTD/svg11.dtd">
<!-- Generated by graphviz version 2.26.3 (20100126.1600)
 -->
<!-- Title: G Pages: 1 -->
<svg width="448pt" height="746pt"
 viewBox="0.00 0.00 448.00 746.00" xmlns="http://www.w3.org/2000/svg" xmlns:xlink="http://www.w3.org/1999/xlink">
<g id="graph1" class="graph" transform="scale(1 1) rotate(0) translate(4 742)">
<title>G</title>
<polygon fill="white" stroke="white" points="-4,5 -4,-742 445,-742 445,5 -4,5"/>
<g id="graph2" class="cluster"><title>cluster_global</title>
<polyline fill="none" stroke="gray" points="20,-8 420,-8 "/>
<path fill="none" stroke="gray" d="M420,-8C426,-8 432,-14 432,-20"/>
<polyline fill="none" stroke="gray" points="432,-20 432,-718 "/>
<path fill="none" stroke="gray" d="M432,-718C432,-724 426,-730 420,-730"/>
<polyline fill="none" stroke="gray" points="420,-730 20,-730 "/>
<path fill="none" stroke="gray" d="M20,-730C14,-730 8,-724 8,-718"/>
<polyline fill="none" stroke="gray" points="8,-718 8,-20 "/>
<path fill="none" stroke="gray" d="M8,-20C8,-14 14,-8 20,-8"/>
<text text-anchor="middle" x="220" y="-716.1" font-family="Times Roman,serif" font-size="11.00" fill="gray">global</text>
</g>
<!-- \\Model -->
<g id="node2" class="node"><title>\\Model</title>
<a xlink:href="system.base.model.html" xlink:title="Model" target="_parent">
<polygon fill="none" stroke="black" points="211,-52 157,-52 157,-16 211,-16 211,-52"/>
<text text-anchor="middle" x="184" y="-31.1" font-family="Courier,monospace" font-size="11.00">Model</text>
</a>
</g>
<!-- \\Dao -->
<g id="node8" class="node"><title>\\Dao</title>
<a xlink:href="system.base.DataAccess.html" xlink:title="Dao" target="_parent">
<polygon fill="none" stroke="black" points="70,-52 16,-52 16,-16 70,-16 70,-52"/>
<text text-anchor="middle" x="43" y="-31.1" font-family="Courier,monospace" font-size="11.00">Dao</text>
</a>
</g>
<!-- \\Model&#45;&gt;\\Dao -->
<g id="edge3" class="edge"><title>\\Model&#45;&gt;\\Dao</title>
<path fill="none" stroke="black" d="M156.814,-34C135.064,-34 104.336,-34 80.2886,-34"/>
<polygon fill="none" stroke="black" points="80.1028,-30.5001 70.1028,-34 80.1027,-37.5001 80.1028,-30.5001"/>
</g>
<!-- \\Dispatcher -->
<g id="node3" class="node"><title>\\Dispatcher</title>
<a xlink:href="system.base.dispatcher.html" xlink:title="Dispatcher" target="_parent">
<polygon fill="none" stroke="black" points="403,-700 319,-700 319,-664 403,-664 403,-700"/>
<text text-anchor="middle" x="361" y="-679.1" font-family="Courier,monospace" font-size="11.00">Dispatcher</text>
</a>
</g>
<!-- \\GlobalRegistry -->
<g id="node4" class="node"><title>\\GlobalRegistry</title>
<a xlink:href="system.base.GlobalRegistry.html" xlink:title="GlobalRegistry" target="_parent">
<polygon fill="none" stroke="black" points="416,-646 306,-646 306,-610 416,-610 416,-646"/>
<text text-anchor="middle" x="361" y="-625.1" font-family="Courier,monospace" font-size="11.00">GlobalRegistry</text>
</a>
</g>
<!-- \\Controller -->
<g id="node5" class="node"><title>\\Controller</title>
<a xlink:href="system.base.controller.html" xlink:title="Controller" target="_parent">
<polygon fill="none" stroke="black" points="226,-214 142,-214 142,-178 226,-178 226,-214"/>
<text text-anchor="middle" x="184" y="-193.1" font-family="Courier,monospace" font-size="11.00">Controller</text>
</a>
</g>
<!-- \\DataAccess -->
<g id="node6" class="node"><title>\\DataAccess</title>
<a xlink:href="system.base.DataAccess.html" xlink:title="DataAccess" target="_parent">
<polygon fill="none" stroke="black" points="403,-592 319,-592 319,-556 403,-556 403,-592"/>
<text text-anchor="middle" x="361" y="-571.1" font-family="Courier,monospace" font-size="11.00">DataAccess</text>
</a>
</g>
<!-- \\DataAccessResult -->
<g id="node7" class="node"><title>\\DataAccessResult</title>
<a xlink:href="system.base.DataAccess.html" xlink:title="DataAccessResult" target="_parent">
<polygon fill="none" stroke="black" points="423,-538 299,-538 299,-502 423,-502 423,-538"/>
<text text-anchor="middle" x="361" y="-517.1" font-family="Courier,monospace" font-size="11.00">DataAccessResult</text>
</a>
</g>
<!-- \\auth -->
<g id="node9" class="node"><title>\\auth</title>
<a xlink:href="system.components.auth.html" xlink:title="auth" target="_parent">
<polygon fill="none" stroke="black" points="388,-484 334,-484 334,-448 388,-448 388,-484"/>
<text text-anchor="middle" x="361" y="-463.1" font-family="Courier,monospace" font-size="11.00">auth</text>
</a>
</g>
<!-- \\ValidatorObj -->
<g id="node10" class="node"><title>\\ValidatorObj</title>
<a xlink:href="system.components.FormValidator.html" xlink:title="ValidatorObj" target="_parent">
<polygon fill="none" stroke="black" points="410,-430 312,-430 312,-394 410,-394 410,-430"/>
<text text-anchor="middle" x="361" y="-409.1" font-family="Courier,monospace" font-size="11.00">ValidatorObj</text>
</a>
</g>
<!-- \\CustomValidator -->
<g id="node11" class="node"><title>\\CustomValidator</title>
<a xlink:href="system.components.FormValidator.html" xlink:title="CustomValidator" target="_parent">
<polygon fill="none" stroke="black" points="420,-376 302,-376 302,-340 420,-340 420,-376"/>
<text text-anchor="middle" x="361" y="-355.1" font-family="Courier,monospace" font-size="11.00">CustomValidator</text>
</a>
</g>
<!-- \\FormValidator -->
<g id="node12" class="node"><title>\\FormValidator</title>
<a xlink:href="system.components.FormValidator.html" xlink:title="FormValidator" target="_parent">
<polygon fill="none" stroke="black" points="413,-322 309,-322 309,-286 413,-286 413,-322"/>
<text text-anchor="middle" x="361" y="-301.1" font-family="Courier,monospace" font-size="11.00">FormValidator</text>
</a>
</g>
<!-- \\photo -->
<g id="node13" class="node"><title>\\photo</title>
<a xlink:href="system.components.photo.html" xlink:title="photo" target="_parent">
<polygon fill="none" stroke="black" points="388,-268 334,-268 334,-232 388,-232 388,-268"/>
<text text-anchor="middle" x="361" y="-247.1" font-family="Courier,monospace" font-size="11.00">photo</text>
</a>
</g>
<!-- \\photo&#45;&gt;\\Controller -->
<g id="edge5" class="edge"><title>\\photo&#45;&gt;\\Controller</title>
<path fill="none" stroke="black" d="M333.732,-241.681C307.719,-233.745 267.862,-221.585 235.809,-211.806"/>
<polygon fill="none" stroke="black" points="236.722,-208.425 226.136,-208.855 234.679,-215.121 236.722,-208.425"/>
</g>
<!-- \\comments -->
<g id="node14" class="node"><title>\\comments</title>
<a xlink:href="system.components.comments.html" xlink:title="comments" target="_parent">
<polygon fill="none" stroke="black" points="396,-214 326,-214 326,-178 396,-178 396,-214"/>
<text text-anchor="middle" x="361" y="-193.1" font-family="Courier,monospace" font-size="11.00">comments</text>
</a>
</g>
<!-- \\comments&#45;&gt;\\Controller -->
<g id="edge7" class="edge"><title>\\comments&#45;&gt;\\Controller</title>
<path fill="none" stroke="black" d="M325.181,-196C299.721,-196 265.114,-196 236.536,-196"/>
<polygon fill="none" stroke="black" points="236.308,-192.5 226.308,-196 236.308,-199.5 236.308,-192.5"/>
</g>
<!-- \\SimpleImage -->
<g id="node15" class="node"><title>\\SimpleImage</title>
<a xlink:href="system.components.SimpleImage.html" xlink:title="SimpleImage" target="_parent">
<polygon fill="none" stroke="black" points="406,-160 316,-160 316,-124 406,-124 406,-160"/>
<text text-anchor="middle" x="361" y="-139.1" font-family="Courier,monospace" font-size="11.00">SimpleImage</text>
</a>
</g>
<!-- \\tests_model -->
<g id="node16" class="node"><title>\\tests_model</title>
<a xlink:href="application.model.tests_model.html" xlink:title="tests_model" target="_parent">
<polygon fill="none" stroke="black" points="406,-52 316,-52 316,-16 406,-16 406,-52"/>
<text text-anchor="middle" x="361" y="-31.1" font-family="Courier,monospace" font-size="11.00">tests_model</text>
</a>
</g>
<!-- \\tests_model&#45;&gt;\\Model -->
<g id="edge9" class="edge"><title>\\tests_model&#45;&gt;\\Model</title>
<path fill="none" stroke="black" d="M315.418,-34C286.301,-34 249.006,-34 221.589,-34"/>
<polygon fill="none" stroke="black" points="221.235,-30.5001 211.235,-34 221.235,-37.5001 221.235,-30.5001"/>
</g>
<!-- \\main -->
<g id="node17" class="node"><title>\\main</title>
<a xlink:href="application.controller.main.html" xlink:title="main" target="_parent">
<polygon fill="none" stroke="black" points="388,-106 334,-106 334,-70 388,-70 388,-106"/>
<text text-anchor="middle" x="361" y="-85.1" font-family="Courier,monospace" font-size="11.00">main</text>
</a>
</g>
<!-- \\main&#45;&gt;\\Controller -->
<g id="edge11" class="edge"><title>\\main&#45;&gt;\\Controller</title>
<path fill="none" stroke="black" d="M333.727,-98.2055C322.412,-102.816 309.312,-108.653 298,-115 268.336,-131.645 236.996,-154.331 214.7,-171.461"/>
<polygon fill="none" stroke="black" points="212.376,-168.835 206.62,-177.73 216.667,-174.365 212.376,-168.835"/>
</g>
</g>
</svg>
